<?xml version="1.0" encoding="utf-8"?>
<!-- Generator: Adobe Illustrator 18.1.1, SVG Export Plug-In . SVG Version: 6.00 Build 0)  -->
<svg version="1.1" xmlns="http://www.w3.org/2000/svg" xmlns:xlink="http://www.w3.org/1999/xlink" x="0px" y="0px"
	 viewBox="0 0 841.9 768" style="enable-background:new 0 0 841.9 768;" xml:space="preserve">
<style type="text/css">
	.st0{fill:url(#SVGID_1_);}
	.st1{fill:#FFFF00;}
	.st2{fill:#22602C;stroke:#000000;stroke-miterlimit:10;}
	.st3{fill:#2B2B2B;}
	.st4{fill:none;stroke:#000000;stroke-width:5;stroke-miterlimit:10;}
	.st5{fill:#FF6E6E;stroke:#000000;stroke-miterlimit:10;}
	.st6{fill:#FFFFFF;stroke:#000000;stroke-miterlimit:10;}
	.st7{fill:none;stroke:#000000;stroke-miterlimit:10;}
	.st8{fill:url(#SVGID_2_);}
	.st9{fill:url(#SVGID_3_);}
</style>
<g id="Background">
	<linearGradient id="SVGID_1_" gradientUnits="userSpaceOnUse" x1="-11.9994" y1="382.5905" x2="862.4568" y2="382.5905">
		<stop  offset="0" style="stop-color:#8C8C8C"/>
		<stop  offset="3.071121e-02" style="stop-color:#E9000D"/>
		<stop  offset="1" style="stop-color:#000000"/>
	</linearGradient>
	<rect x="-12" y="-14.9" class="st0" width="874.5" height="795"/>
</g>
<g id="Text">
	<path class="st1" d="M694.8,157.4c-7.6,2.7-22.5,7.1-40.2,7.1c-19.8,0-36.1-5-49-17.1c-11.3-10.8-18.3-28.1-18.3-48.3
		c0.2-38.7,27-66.9,70.9-66.9c15.2,0,27,3.3,32.6,6l-4.1,13.7c-7-3.1-15.7-5.6-28.9-5.6c-31.9,0-52.6,19.6-52.6,52.1
		c0,32.9,20,52.3,50.5,52.3c11.1,0,18.6-1.5,22.5-3.5v-38.7l-35.1,8.4l0.3-31.7l51.3,9.8V157.4z"/>
	<path class="st1" d="M624.4,202.2h-18.9v17.5h21v5.3h-27.3v-48.5h26.2v5.3h-19.9V197h18.9V202.2z"/>
	<path class="st1" d="M682,200.2c0,16.7-10.2,25.6-22.5,25.6c-12.8,0-21.8-9.9-21.8-24.6c0-15.4,9.6-25.5,22.5-25.5
		C673.4,175.6,682,185.8,682,200.2z M644.3,201c0,10.4,5.6,19.7,15.5,19.7c9.9,0,15.6-9.1,15.6-20.2c0-9.6-5-19.7-15.5-19.7
		C649.5,180.7,644.3,190.3,644.3,201z"/>
	<path class="st1" d="M597.1,233.1c3.2-0.6,7.7-1,12-1c6.7,0,11,1.2,14,4c2.4,2.2,3.8,5.5,3.8,9.2c0,6.4-4,10.7-9.1,12.4v0.2
		c3.7,1.3,6,4.8,7.1,9.8c1.6,6.8,2.7,11.4,3.7,13.3h-6.5c-0.8-1.4-1.9-5.5-3.2-11.6c-1.4-6.7-4-9.2-9.7-9.4h-5.9v21h-6.3V233.1z
		 M603.3,255.2h6.4c6.7,0,10.9-3.7,10.9-9.2c0-6.3-4.5-9-11.2-9.1c-3,0-5.2,0.3-6.2,0.6V255.2z"/>
	<path class="st1" d="M677.4,281c-2.8,1-8.4,2.7-14.9,2.7c-7.3,0-13.4-1.9-18.1-6.4c-4.2-4-6.8-10.5-6.8-18.1
		c0.1-14.5,10-25.1,26.3-25.1c5.6,0,10,1.2,12.1,2.2l-1.5,5.1c-2.6-1.2-5.8-2.1-10.7-2.1c-11.8,0-19.5,7.3-19.5,19.5
		c0,12.3,7.4,19.6,18.7,19.6c4.1,0,6.9-0.6,8.4-1.3v-14.5h-9.9v-5h16V281z"/>
	<path class="st1" d="M711.3,260.4h-18.9v17.5h21v5.3h-27.3v-48.5h26.2v5.3h-19.9v15.3h18.9V260.4z"/>
	<path class="st1" d="M810.2,86.2c-0.8-15.9-1.8-35-1.7-49.2h-0.5c-3.8,13.3-10.5,41.6-16.1,57.3l-21.8,19.4l-22.6-21.1
		c-5.3-16-12-42.1-15.1-55.6h-0.3c-0.3,14.2-1.2,33.3-2.2,50.3l-3,48.8h-13.7L721,22.4h18.4l30.8,61.4l0,0l31.6-61.4h18.4l7,113.9
		h-14.1L810.2,86.2z"/>
	<path class="st1" d="M726.5,146.6v48.5h-6.3v-48.5H726.5z"/>
	<path class="st1" d="M737.2,146.6h6.3v43.3h20.7v5.3h-27V146.6z"/>
	<path class="st1" d="M771.7,146.6h6.3v43.3h20.7v5.3h-27V146.6z"/>
	<path class="st1" d="M781.7,231.6h-18.9v17.5h21v5.3h-27.3v-48.5h26.2v5.3h-19.9v15.3h18.9V231.6z"/>
	<path class="st1" d="M792,206.4c3.2-0.6,7.7-1,12-1c6.7,0,11,1.2,14,4c2.4,2.2,3.8,5.5,3.8,9.2c0,6.4-4,10.7-9.1,12.4v0.2
		c3.7,1.3,6,4.8,7.1,9.8c1.6,6.8,2.7,11.4,3.7,13.3h-6.5c-0.8-1.4-1.9-5.5-3.2-11.6c-1.4-6.7-4-9.2-9.7-9.4h-5.9v21H792V206.4z
		 M798.2,228.6h6.4c6.7,0,10.9-3.7,10.9-9.2c0-6.3-4.5-9-11.2-9.1c-3,0-5.2,0.3-6.2,0.6V228.6z"/>
</g>
<g id="Head">
	<path class="st2" d="M131.2,768.5c-23.6-20-44.4-59.9-44.4-59.9c-26.2-48.5-30.2-119.5-30.2-119.5c-14.4-40.7-2-235.7-2-235.7
		l-4.1-157.2C46.5,186.7,39.6,53,39.6,53S-5.3,9.1,22.6-0.4l55.8,4.8c0,0,179.6,4.8,206.2,3.4s228.6,6.1,255.8,8.2
		s20,127.1,20,127.1l-3.7,241.4l-2.6,177.7c0,0-15.7,146.2-69.2,206.2H131.2z"/>
</g>
<g id="MouthInside">
	<polygon class="st3" points="214.2,384.2 489,384.6 474.1,634.1 445.9,652.8 423.7,667.3 405.9,674.9 379.6,682.1 362.8,683.4 
		336.9,685.4 316.8,683.4 296.9,681.3 274.4,676.6 262.3,673 246.8,668.4 225.8,659.5 207.9,571.3 207.9,448 	"/>
	<line class="st4" x1="217.6" y1="628.9" x2="260.1" y2="671.4"/>
	<line class="st4" x1="204.3" y1="598" x2="284.5" y2="678.2"/>
	<line class="st4" x1="196.9" y1="573.3" x2="306.3" y2="682.7"/>
	<line class="st4" x1="185.9" y1="543.5" x2="325.9" y2="683.6"/>
	<line class="st4" x1="187.9" y1="528.1" x2="342.6" y2="682.8"/>
	<line class="st4" x1="172.8" y1="494.2" x2="363.1" y2="684.5"/>
	<line class="st4" x1="168.8" y1="471.1" x2="377.6" y2="679.8"/>
	<line class="st4" x1="174.5" y1="456.8" x2="396.3" y2="678.6"/>
	<line class="st4" x1="178.6" y1="440.5" x2="412.4" y2="674.3"/>
	<line class="st4" x1="197.5" y1="437.8" x2="428.3" y2="668.6"/>
	<line class="st4" x1="438.6" y1="659.5" x2="204.5" y2="425.5"/>
	<line class="st4" x1="499.8" y1="586.1" x2="301.2" y2="387.5"/>
	<line class="st4" x1="487.7" y1="551.1" x2="323.6" y2="386.9"/>
	<line class="st4" x1="491.7" y1="512.5" x2="365.3" y2="386.1"/>
	<line class="st4" x1="500.5" y1="479.2" x2="407.5" y2="386.3"/>
	<line class="st4" x1="492.7" y1="430.8" x2="448.8" y2="386.9"/>
	<line class="st4" x1="201" y1="403.4" x2="446.9" y2="649.3"/>
	<line class="st4" x1="204.5" y1="388.9" x2="461" y2="645.4"/>
	<line class="st4" x1="477.9" y1="643.1" x2="221.3" y2="386.5"/>
	<line class="st4" x1="487" y1="632.9" x2="241" y2="386.8"/>
	<line class="st4" x1="494.8" y1="621.5" x2="260.7" y2="387.4"/>
	<line class="st4" x1="495.8" y1="602.3" x2="281.1" y2="387.6"/>
	<line class="st4" x1="344.4" y1="386.8" x2="495.4" y2="537.9"/>
	<line class="st4" x1="385.5" y1="385.8" x2="496.7" y2="497.1"/>
	<line class="st4" x1="428.3" y1="386.8" x2="497.9" y2="456.4"/>
</g>
<g id="Toungue">
	<line class="st5" x1="346.4" y1="602" x2="346.4" y2="602"/>
	<path class="st5" d="M408.9,637.5c0,0-16.5-33.5-62.5-35.5s-77,33.8-77,33.8c16.6,25.1,71.6,21.4,71.6,21.4
		S403.3,653.6,408.9,637.5z"/>
</g>
<g id="Teeth">
	<path class="st6" d="M450.9,633.3l-5-4.5c2.8,14.7,0,23.9,0,23.9c-7.9-8.5-11.4-22.9-11.4-22.9c3.5,15.5,0,31.1,0,31.1
		c-7.2-7.1-13.6-22.5-13.6-22.5c2.8,16.9,0,30.2,0,30.2c-6.2-5.2-16.4-27.9-16.4-27.9c3.5,13.2,0,34.9,0,34.9
		c-5.8-7.6-13.9-32.8-13.9-32.8c2.6,18.6-2.5,37.6-2.5,37.6c-7.4-10-14.6-36.3-14.6-36.3c0,21-6.2,40-6.2,40c-4.6-8.1-9.4-33-9.4-33
		c-0.8,14.8-8.3,34.4-8.3,34.4c-4.7-7-6.5-30.2-6.5-30.2c-2.6,9.3-10.6,29.1-10.6,29.1c-3.1-6.3-5.2-31.6-5.2-31.6
		c-2.3,13-10.2,31.6-10.2,31.6c-2.7-4-2.8-31.6-2.8-31.6c-3.9,15.1-11.7,29.9-11.7,29.9c-1.8-5.2-2.6-33.1-2.6-33.1
		c-2.8,14-11.7,30.6-11.7,30.6c-3.7-3.6-2.5-35.5-2.5-35.5c-2.8,15-14.5,31.7-14.5,31.7c-2.6-7.4,0-35,0-35
		c-5.2,16.3-17.2,30.1-17.2,30.1c-2.2-4.3,0-32.9,0-32.9c-6.5,19.5-17.3,26.8-17.3,26.8s-3.6-18.4,1.5-28.7l-5.1,6.4v21.3l47.2,14.1
		l29.8,5.2l13.5,1.3l15.3,0.5l20.8-0.6l15.9-2l22.1-5.1l15.1-5.5l16-8l32.4-21.3L450.9,633.3z"/>
	<polyline class="st6" points="457.4,391.1 449.8,408.7 443.8,386.4 434,413.1 423.8,385.9 416.4,406.5 408.9,386.2 402.3,409.5 
		393.9,386 385,413.1 373.7,385.7 363.4,411.6 353.9,386.4 344.8,410.1 336.4,386.4 328.9,409.8 319.5,386.1 312.8,410.4 
		302.7,386.1 293.9,410.7 283.3,385.7 273.6,413.1 262.8,385.5 254.8,413.1 243.4,392.2 241.6,385.4 457.4,384.5 	"/>
</g>
<g id="FaceOutline">
	<path class="st6" d="M454.1,384.5c58.7,74.4-25.2,326.6-25.2,326.6c164.6-31.7,138-326.6,138-326.6h-470c0,0-3,256.5,155,355.5
		c0,0-61.7-249.5-3-356"/>
	<path class="st7" d="M233.6,643l3.5,22.3c0,0,127,53.2,208.9-12.5"/>
	<linearGradient id="SVGID_2_" gradientUnits="userSpaceOnUse" x1="379.8931" y1="190.2499" x2="566.4069" y2="190.2499">
		<stop  offset="0" style="stop-color:#8C8C8C"/>
		<stop  offset="1" style="stop-color:#000000"/>
	</linearGradient>
	<ellipse class="st8" cx="473.1" cy="190.2" rx="93.3" ry="133.2"/>
	<linearGradient id="SVGID_3_" gradientUnits="userSpaceOnUse" x1="96.8931" y1="189.9539" x2="316.8938" y2="189.9539">
		<stop  offset="0" style="stop-color:#8C8C8C"/>
		<stop  offset="1" style="stop-color:#000000"/>
	</linearGradient>
	<ellipse class="st9" cx="206.9" cy="190" rx="110" ry="152"/>
</g>
</svg>
